<svg height="512pt" viewBox="0 -9 512 512" width="512pt" xmlns="http://www.w3.org/2000/svg"><path d="m442.878906 408.046875h-373.761718l29.886718-175.460937c13.394532-76.109376 79.519532-131.617188 156.804688-131.617188 5.109375 0 10.171875.242188 15.171875.71875 32.742187 3.109375 62.890625 16.199219 87.042969 36.433594 27.851562 23.328125 47.742187 56.136718 54.515624 94.109375zm0 0" fill="#d63030"/><path d="m442.878906 408.046875h-343.390625l29.886719-175.460937c12.5-71.066407 70.996094-124.175782 141.605469-130.898438 32.742187 3.109375 62.890625 16.199219 87.042969 36.433594 27.851562 23.328125 47.742187 56.136718 54.515624 94.109375zm0 0" fill="#f44545"/><path d="m505.039062 434.449219v27.011719c0 17.703124-14.34375 32.050781-32.050781 32.050781h-433.976562c-17.707031 0-32.050781-14.347657-32.050781-32.050781v-27.011719c0-17.707031 14.34375-32.050781 32.050781-32.050781h433.976562c17.707031 0 32.050781 14.34375 32.050781 32.050781zm0 0" fill="#f29500"/><path d="m505.039062 434.449219v22.910156h-420.59375c-17.703124 0-32.050781-14.355469-32.050781-32.050781v-22.910156h420.59375c17.707031 0 32.050781 14.34375 32.050781 32.050781zm0 0" fill="#ffb52d"/><g fill="#fc7979"><path d="m256 0c-4.195312 0-7.59375 3.398438-7.59375 7.59375v53.730469c0 4.191406 3.398438 7.589843 7.59375 7.589843 4.191406 0 7.59375-3.398437 7.59375-7.589843v-53.730469c0-4.195312-3.398438-7.59375-7.59375-7.59375zm0 0"/><path d="m138.371094 37.078125c-2.097656-3.632813-6.742188-4.878906-10.371094-2.78125-3.632812 2.097656-4.875 6.742187-2.777344 10.371094l26.863282 46.53125c1.40625 2.4375 3.957031 3.796875 6.582031 3.796875 1.289062 0 2.59375-.328125 3.789062-1.015625 3.632813-2.097657 4.875-6.742188 2.78125-10.371094zm0 0"/><path d="m91.199219 152.085938-46.53125-26.867188c-3.632813-2.097656-8.273438-.851562-10.371094 2.78125-2.097656 3.628906-.851563 8.273438 2.78125 10.371094l46.53125 26.863281c1.195313.691406 2.5 1.019531 3.789063 1.019531 2.621093 0 5.175781-1.363281 6.582031-3.796875 2.097656-3.632812.851562-8.273437-2.78125-10.371093zm0 0"/><path d="m61.324219 248.40625h-53.730469c-4.195312 0-7.59375 3.398438-7.59375 7.59375 0 4.191406 3.398438 7.59375 7.59375 7.59375h53.730469c4.191406 0 7.589843-3.402344 7.589843-7.59375 0-4.195312-3.398437-7.59375-7.589843-7.59375zm0 0"/><path d="m384 34.296875c-3.632812-2.097656-8.277344-.851563-10.371094 2.78125l-26.867187 46.53125c-2.09375 3.628906-.851563 8.273437 2.78125 10.371094 1.195312.6875 2.5 1.015625 3.789062 1.015625 2.625 0 5.175781-1.359375 6.582031-3.796875l26.863282-46.53125c2.097656-3.632813.855468-8.273438-2.777344-10.371094zm0 0"/><path d="m477.703125 128c-2.097656-3.632812-6.742187-4.875-10.371094-2.777344l-46.53125 26.863282c-3.632812 2.097656-4.875 6.742187-2.78125 10.371093 1.40625 2.4375 3.960938 3.796875 6.582031 3.796875 1.289063 0 2.59375-.328125 3.789063-1.015625l46.53125-26.867187c3.632813-2.097656 4.878906-6.738282 2.78125-10.371094zm0 0"/><path d="m504.40625 248.40625h-53.730469c-4.191406 0-7.589843 3.398438-7.589843 7.59375 0 4.191406 3.398437 7.59375 7.589843 7.59375h53.730469c4.195312 0 7.59375-3.402344 7.59375-7.59375 0-4.195312-3.398438-7.59375-7.59375-7.59375zm0 0"/></g><path d="m293.019531 177.808594-6.519531 86.25c-.605469 8.019531-4.25 15.125-9.746094 20.226562-1.730468 1.609375-3.65625 3.019532-5.722656 4.191406-4.492188 2.550782-9.675781 4.011719-15.183594 4.011719-16.125 0-29.511718-12.453125-30.664062-28.539062l-6.214844-86.273438c-1.550781-21.503906 15.46875-39.804687 37.03125-39.804687 5.425781 0 10.558594 1.152344 15.183594 3.226562 13.800781 6.195313 23.0625 20.5625 21.835937 36.710938zm0 0" fill="#fd9a9a"/><path d="m280.296875 347.996094c0 7.660156-3.554687 14.503906-9.113281 18.949218-4.160156 3.339844-9.445313 5.335938-15.183594 5.335938-13.414062 0-24.296875-10.875-24.296875-24.285156 0-13.425782 10.882813-24.296875 24.296875-24.296875 5.738281 0 11.023438 2.003906 15.183594 5.332031 5.558594 4.457031 9.113281 11.289062 9.113281 18.964844zm0 0" fill="#fd9a9a"/><path d="m293.019531 177.808594-6.519531 86.25c-.605469 8.019531-4.25 15.125-9.746094 20.226562-1.730468 1.609375-3.65625 3.019532-5.722656 4.191406-8.652344-4.917968-14.71875-13.9375-15.476562-24.527343l-6.214844-86.273438c-1.164063-16.097656 8.085937-30.402343 21.84375-36.578125 13.800781 6.195313 23.0625 20.5625 21.835937 36.710938zm0 0" fill="#fdbcbc"/><path d="m280.296875 347.996094c0 7.660156-3.554687 14.503906-9.113281 18.949218-5.554688-4.445312-9.109375-11.289062-9.109375-18.949218 0-7.675782 3.554687-14.507813 9.109375-18.964844 5.558594 4.457031 9.113281 11.289062 9.113281 18.964844zm0 0" fill="#fdbcbc"/></svg>