<?xml version="1.0" standalone="no"?>
<!DOCTYPE svg PUBLIC "-//W3C//DTD SVG 20010904//EN"
 "http://www.w3.org/TR/2001/REC-SVG-20010904/DTD/svg10.dtd">
<svg version="1.0" xmlns="http://www.w3.org/2000/svg"
 width="222.000000pt" height="227.000000pt" viewBox="0 0 222.000000 227.000000"
 preserveAspectRatio="xMidYMid meet">

<g transform="translate(0.000000,227.000000) scale(0.100000,-0.100000)"
fill="#000000" stroke="none">
<path d="M1325 2241 c-33 -17 -73 -31 -88 -31 -67 0 -159 -61 -188 -124 -27
-60 -24 -127 11 -231 17 -49 35 -109 40 -131 22 -91 110 -125 170 -66 32 32
53 98 47 145 -3 29 -4 28 -6 -8 -1 -22 -7 -47 -14 -56 -50 -66 -164 -43 -186
38 -6 21 -11 44 -11 51 0 7 -14 49 -31 92 -41 102 -36 131 29 192 52 49 159
93 200 82 12 -4 28 -2 35 4 6 6 39 18 71 27 106 31 226 6 312 -65 29 -24 27
-21 -9 13 -59 57 -129 84 -238 92 -80 6 -87 5 -144 -24z"/>
<path d="M1665 2120 c22 -36 104 -50 202 -36 29 4 66 5 83 1 27 -6 30 -10 30
-43 0 -20 -7 -62 -15 -92 -17 -68 -75 -124 -173 -172 -58 -27 -80 -32 -170
-36 -56 -3 -105 -8 -107 -13 -3 -4 11 -13 32 -18 111 -31 254 12 355 106 38
36 52 58 64 102 9 31 27 70 40 88 37 49 30 90 -16 92 -14 1 -78 1 -142 1 -87
-1 -125 3 -147 15 -35 18 -45 19 -36 5z"/>
<path d="M1605 2055 c-16 -8 -43 -14 -59 -15 -24 0 -27 -2 -16 -15 18 -21 62
-19 88 5 18 17 31 43 20 39 -2 0 -16 -7 -33 -14z"/>
<path d="M1825 1910 c-3 -6 1 -7 9 -4 18 7 21 14 7 14 -6 0 -13 -4 -16 -10z"/>
<path d="M1302 1880 c0 -14 2 -19 5 -12 2 6 2 18 0 25 -3 6 -5 1 -5 -13z"/>
<path d="M1015 1667 c-8 -13 -24 -49 -35 -82 -39 -113 -58 -136 -290 -345 -46
-41 -113 -113 -151 -160 -37 -47 -104 -120 -148 -162 -126 -122 -178 -247
-188 -456 -3 -61 -9 -112 -12 -112 -12 0 -124 94 -144 121 -10 15 -21 47 -24
72 -9 74 13 139 82 242 66 98 85 153 85 243 0 76 -18 123 -63 166 -45 43 -66
32 -24 -12 36 -39 57 -86 64 -141 6 -54 -8 -89 -81 -193 -49 -70 -73 -141 -82
-238 -9 -100 5 -139 78 -204 34 -31 76 -61 94 -68 20 -7 35 -20 39 -35 8 -33
62 -91 107 -114 21 -11 38 -16 38 -13 0 4 -27 36 -60 70 -33 35 -67 79 -75 98
-31 75 -9 242 47 356 22 46 61 95 133 170 56 58 127 137 158 177 31 39 91 102
134 140 215 191 235 216 282 362 17 52 38 104 46 117 9 13 13 24 10 24 -2 0
-11 -10 -20 -23z"/>
<path d="M1910 1624 c-30 -14 -67 -36 -82 -50 -25 -25 -28 -25 -80 -15 -66 14
-132 2 -195 -35 -54 -31 -99 -30 -168 3 -61 30 -76 25 -73 -27 1 -23 1 -24 5
-2 2 12 6 22 7 22 2 0 29 -12 60 -26 74 -34 106 -33 189 7 66 31 72 31 156 25
81 -6 89 -5 107 15 22 24 105 69 129 69 8 0 15 -7 15 -17 0 -9 2 -14 5 -11 7
6 -6 68 -14 67 -3 0 -31 -11 -61 -25z"/>
<path d="M1991 1554 c0 -11 3 -14 6 -6 3 7 2 16 -1 19 -3 4 -6 -2 -5 -13z"/>
<path d="M2001 1514 c0 -11 3 -14 6 -6 3 7 2 16 -1 19 -3 4 -6 -2 -5 -13z"/>
<path d="M1321 1460 c0 -8 15 -49 33 -90 23 -52 30 -77 22 -82 -7 -5 -6 -8 4
-8 9 0 35 -40 67 -103 l51 -103 -47 -19 c-74 -31 -134 -96 -248 -274 -129
-200 -164 -282 -170 -401 -12 -190 49 -394 112 -375 80 24 243 57 305 62 59 4
102 0 205 -22 301 -63 456 -25 531 133 50 104 35 234 -31 278 -45 29 -135 40
-135 16 0 -4 29 -20 65 -36 36 -15 76 -42 90 -58 50 -59 23 -163 -62 -237 -81
-72 -186 -91 -361 -67 -156 22 -318 21 -444 -4 -57 -11 -114 -20 -126 -20 -38
0 -81 32 -101 75 -27 55 -45 183 -38 260 8 79 32 137 116 280 133 226 200 308
289 354 23 11 44 25 47 31 5 8 11 7 21 -1 24 -20 17 42 -9 81 -21 31 -118 210
-169 310 -9 19 -17 28 -17 20z"/>
<path d="M1358 1203 c7 -3 16 -2 19 1 4 3 -2 6 -13 5 -11 0 -14 -3 -6 -6z"/>
<path d="M1288 1193 c7 -3 16 -2 19 1 4 3 -2 6 -13 5 -11 0 -14 -3 -6 -6z"/>
<path d="M622 805 c-34 -15 -144 -97 -138 -103 2 -2 27 8 54 22 113 57 191 54
263 -11 92 -83 92 -144 1 -280 -33 -50 -79 -106 -101 -125 -55 -47 -54 -66 2
-66 68 1 156 -29 195 -68 18 -18 32 -39 30 -46 -3 -7 -22 -19 -44 -27 -32 -11
-61 -11 -159 -1 -115 11 -124 10 -185 -11 -60 -20 -113 -49 -65 -36 60 18 148
24 215 17 131 -16 215 -13 233 8 36 40 7 131 -52 166 -18 10 -57 22 -86 25
l-54 6 55 80 c76 108 96 157 96 230 0 68 -16 115 -57 163 -55 65 -133 87 -203
57z"/>
<path d="M1877 771 c-52 -58 -62 -102 -62 -281 0 -159 7 -210 27 -210 8 0 8
19 2 67 -5 38 -9 118 -9 179 0 110 0 111 42 195 23 46 40 85 39 87 -2 1 -19
-15 -39 -37z"/>
</g>
</svg>
